<?xml version="1.0" standalone="no"?>
<!DOCTYPE svg PUBLIC "-//W3C//DTD SVG 20010904//EN"
 "http://www.w3.org/TR/2001/REC-SVG-20010904/DTD/svg10.dtd">
<svg version="1.0" xmlns="http://www.w3.org/2000/svg"
 width="700.000000pt" height="700.000000pt" viewBox="0 0 700.000000 700.000000"
 preserveAspectRatio="xMidYMid meet">
<metadata>
Created by potrace 1.14, written by Peter Selinger 2001-2017
</metadata>
<g transform="translate(0.000000,700.000000) scale(0.100000,-0.100000)"
fill="#000000" stroke="none">
<path d="M3468 6246 c-1 -2 -48 -6 -103 -10 -196 -12 -352 -37 -570 -93 -229
-58 -484 -154 -627 -235 -37 -21 -71 -38 -76 -38 -5 0 -29 11 -53 24 -99 55
-249 100 -409 122 -91 12 -459 13 -505 1 -11 -2 -41 -8 -67 -11 -153 -21 -403
-125 -538 -224 -298 -219 -417 -506 -349 -844 47 -234 190 -452 389 -591 117
-82 342 -181 457 -200 99 -18 188 -38 194 -44 4 -5 10 -45 13 -90 4 -46 9 -93
12 -105 2 -13 7 -36 10 -53 71 -396 351 -975 609 -1259 32 -36 63 -66 67 -66
5 0 5 28 1 63 -10 79 -10 376 0 442 10 66 44 170 74 222 12 23 23 45 23 50 0
4 -15 24 -33 43 -85 90 -268 356 -345 500 -22 41 -52 109 -67 150 -24 66 -26
84 -21 155 17 246 197 729 325 875 31 34 72 60 97 60 79 0 242 -266 479 -785
27 -59 125 -288 153 -360 11 -27 24 -49 29 -48 5 1 40 21 78 44 107 65 281
152 375 188 88 34 113 48 105 60 -2 4 0 36 5 72 5 35 11 91 14 124 7 74 15
134 20 160 3 11 8 43 11 71 3 28 8 61 10 74 3 13 7 42 10 65 3 22 8 47 10 55
2 8 7 31 10 50 23 139 89 424 135 585 17 61 35 124 40 140 42 152 190 556 230
627 13 23 9 24 -94 27 -49 2 -97 4 -107 6 -9 2 -19 2 -21 1z"/>
<path d="M5460 6027 c-3 -3 -39 -7 -80 -11 -41 -3 -111 -15 -155 -27 -44 -11
-87 -22 -96 -24 -21 -5 -120 -44 -139 -56 -8 -4 -30 -16 -47 -25 -38 -19 -41
-11 50 -129 115 -149 136 -208 112 -310 -12 -52 -70 -176 -154 -331 -247 -458
-486 -960 -574 -1207 -6 -16 -13 -14 -64 19 -93 59 -291 160 -398 203 -261
103 -437 120 -644 62 -41 -11 -75 -22 -77 -24 -5 -5 -13 -95 -21 -242 -14
-266 -7 -889 12 -1030 2 -16 7 -66 10 -110 10 -115 21 -210 32 -280 3 -22 7
-51 8 -65 4 -32 42 -267 50 -300 3 -14 8 -44 11 -67 l6 -43 -66 0 -66 0 -100
-100 c-54 -55 -101 -100 -104 -100 -23 0 -166 276 -237 455 -23 61 -48 116
-54 123 -25 28 -208 -199 -272 -338 -43 -93 -83 -221 -98 -310 -3 -19 -7 -46
-10 -60 -2 -14 -7 -60 -11 -102 -6 -76 -5 -79 27 -130 82 -131 229 -295 356
-399 39 -32 74 -59 76 -59 3 0 29 -16 58 -36 138 -93 355 -175 527 -199 20 -3
53 -8 72 -11 78 -11 265 -1 283 15 4 4 -10 50 -32 102 -92 216 -207 560 -261
779 -32 130 -71 301 -76 332 l-6 38 262 0 261 0 101 -102 100 -101 19 24 c60
76 197 357 260 531 7 21 16 38 20 38 13 0 140 -143 181 -202 77 -114 151 -291
173 -413 4 -22 10 -49 12 -60 2 -11 6 -42 9 -70 3 -27 7 -59 9 -70 2 -11 4
-36 4 -55 l1 -35 21 34 c61 101 150 298 209 461 30 85 86 298 95 365 3 22 8
49 10 61 31 145 42 472 20 598 -18 98 -29 134 -67 212 l-29 61 83 104 c167
208 307 436 361 586 14 39 23 73 20 77 -10 10 20 14 142 20 66 3 131 7 145 10
14 2 46 7 71 10 248 34 471 116 639 234 147 103 287 279 344 431 45 119 59
191 62 316 5 239 -71 416 -254 593 -160 156 -414 281 -645 317 -17 3 -56 9
-86 14 -56 9 -393 15 -401 8z m-417 -1661 c59 -21 102 -56 137 -108 43 -67 63
-139 63 -233 0 -105 -26 -175 -94 -245 -201 -207 -530 -90 -529 188 1 148 125
342 253 394 51 20 119 22 170 4z"/>
<path d="M1960 4368 c-78 -22 -157 -110 -187 -207 -20 -65 -23 -185 -6 -240
57 -191 270 -297 446 -222 94 41 168 154 169 262 1 145 -117 335 -246 395 -54
25 -115 30 -176 12z"/>
</g>
</svg>
