<svg xmlns="http://www.w3.org/2000/svg" viewBox="0 0 512 512">
    <title>theanaverwaerde_logo</title>
    <path d="M141.18,287a51.2,51.2,0,0,1,6.94-17l0,0c-1.87-.5-32.32-38.61-34.76-57.27-1.77-13.56,17.63-72.12,30.74-73.15,11.85-.94,44.26,76.92,48.31,88,13.55-8.89,28-16.09,41-20.37,4.85-56.05,17.91-107.61,37.06-151.09-4.74-.42-9.55-.7-14.42-.78-47.56.81-90.11,19-103.12,27.81-22-14.78-64.22-14.67-85-8.23-20,5.08-50,22-55.8,51.63-5.86,29.89,11,76.35,76.81,84.8,1.7,47.44,36.36,103.68,52.33,116.33C139.12,311.94,139.22,297.68,141.18,287Z"/><path d="M128.2,218.24c0,15.18,13.16,25.15,23.87,25.15,15.67,0,22.19-11.81,22.19-21.43,0-12.9-12.53-30.47-24.68-30.47C135.48,191.49,128.2,204.19,128.2,218.24Z"/><path d="M232,363.42l-15,15c-7.85-9.88-14-24.35-21.46-43.74-21,18-28.16,42.59-28.72,66.59v0c18.53,30,47.43,53.57,89.19,55.37a111.42,111.42,0,0,0,14.11-1.51,448.45,448.45,0,0,1-28.43-91.76Z"/><path d="M499.92,126.52C494.11,96.94,464.15,80,444.11,74.89c-20.77-6.44-63-6.55-85,8.23,23.1,30.05,20,20.5-10.92,81.49h0c-12.65,23.52-26.06,56-28.57,62.93-22.27-14.62-47-24.68-63.62-24.68-6.52,0-14.28,1.56-22.64,4.31q-2.07,23.91-2.1,48.82a548,548,0,0,0,10.42,107.42H280l15,15c7.85-9.88,14-24.35,21.46-43.74,21,18,28.16,42.59,28.72,66.59,14.29-23.12,22.43-50,25.59-73.64,2.1-15.71,2-30,0-40.68a51.2,51.2,0,0,0-6.94-17l0,0c1.87-.5,32.32-38.61,34.76-57.27,7.22.61,9.46.38,24.44-1.36C488.89,202.87,505.78,156.41,499.92,126.52Zm-140,116.87c-15.67,0-22.19-11.81-22.19-21.43,0-12.9,12.53-30.47,24.68-30.47,14.1,0,21.38,12.7,21.38,26.75C383.8,233.42,370.64,243.39,359.93,243.39Z"/></svg>